<svg width="70" height="70" viewBox="0 0 70 70" fill="none" xmlns="http://www.w3.org/2000/svg">
<rect width="70" height="70" rx="14" fill="#B7BDB7"/>
<path d="M17.3353 32.528C19.3886 32.808 20.8539 33.4053 21.7313 34.32C22.6086 35.216 23.0473 36.2987 23.0473 37.568C23.0473 38.632 22.7766 39.5747 22.2353 40.396C21.6939 41.2173 20.9193 41.8613 19.9113 42.328C18.9033 42.776 17.7086 43 16.3273 43C15.8233 43 15.3939 42.9907 15.0393 42.972C13.8446 42.9347 12.6686 42.916 11.5113 42.916C9.98061 42.916 8.82328 42.944 8.03928 43V42.44C8.71128 42.4027 9.19661 42.328 9.49528 42.216C9.81261 42.104 10.0273 41.8893 10.1393 41.572C10.2513 41.2547 10.3073 40.7413 10.3073 40.032V26.144C10.3073 25.4347 10.2513 24.9213 10.1393 24.604C10.0273 24.2867 9.81261 24.072 9.49528 23.96C9.19661 23.848 8.71128 23.7733 8.03928 23.736V23.176C8.82328 23.232 9.96195 23.26 11.4553 23.26L14.4793 23.232C14.8339 23.2133 15.2353 23.204 15.6833 23.204C17.5873 23.204 19.0433 23.6053 20.0513 24.408C21.0779 25.2107 21.5913 26.2747 21.5913 27.6C21.5913 28.6827 21.2459 29.6533 20.5553 30.512C19.8833 31.3707 18.8099 32.024 17.3353 32.472V32.528ZM14.9833 23.736C14.4046 23.736 13.9659 23.8013 13.6673 23.932C13.3873 24.0627 13.1913 24.296 13.0793 24.632C12.9673 24.968 12.9113 25.472 12.9113 26.144V32.472H14.7873C16.3179 32.472 17.3819 32.0613 17.9793 31.24C18.5953 30.4 18.9033 29.2893 18.9033 27.908C18.9033 26.508 18.5953 25.4627 17.9793 24.772C17.3633 24.0813 16.3646 23.736 14.9833 23.736ZM15.0113 42.356C18.5019 42.356 20.2473 40.7227 20.2473 37.456C20.2473 35.9813 19.8459 34.8613 19.0433 34.096C18.2593 33.3307 16.9993 32.948 15.2633 32.948H12.9113V40.032C12.9113 40.704 12.9673 41.1987 13.0793 41.516C13.1913 41.8333 13.3873 42.0573 13.6673 42.188C13.9659 42.3 14.4139 42.356 15.0113 42.356ZM45.9526 28.58C45.9526 29.42 45.7193 30.1293 45.2526 30.708C44.8046 31.2867 44.1139 31.772 43.1806 32.164L41.6966 32.752L40.2406 33.312C41.2859 33.592 42.0419 34.0773 42.5086 34.768C42.9753 35.4587 43.2086 36.1867 43.2086 36.952C43.2086 38.128 42.8633 39.2107 42.1726 40.2C41.5006 41.1707 40.5113 41.9453 39.2046 42.524C37.8979 43.1027 36.3486 43.392 34.5566 43.392C32.9699 43.392 31.5046 43.1587 30.1606 42.692C28.8353 42.2067 27.7713 41.5253 26.9686 40.648C26.1846 39.752 25.7926 38.716 25.7926 37.54C25.7926 36.364 26.0633 35.3747 26.6046 34.572C27.1646 33.7693 27.7899 33.1533 28.4806 32.724C29.1899 32.2947 29.8339 32.0053 30.4126 31.856C29.4979 31.5573 28.7979 31.1467 28.3126 30.624C27.8273 30.1013 27.5846 29.4947 27.5846 28.804C27.5846 27.8893 28.0046 27.124 28.8446 26.508C29.6846 25.892 30.8513 25.584 32.3446 25.584C33.5393 25.584 34.5006 25.864 35.2286 26.424C35.5646 26.704 35.8166 27.0213 35.9846 27.376C36.1713 27.712 36.2646 28.0387 36.2646 28.356C36.2646 28.804 36.1059 29.168 35.7886 29.448C35.4713 29.7093 35.1073 29.84 34.6966 29.84C34.2859 29.84 33.9406 29.7187 33.6606 29.476C33.3806 29.2333 33.2406 28.888 33.2406 28.44C33.2406 28.0293 33.3806 27.6747 33.6606 27.376C33.9406 27.0773 34.2953 26.9187 34.7246 26.9C34.6313 26.6573 34.3886 26.452 33.9966 26.284C33.6233 26.0973 33.1753 26.004 32.6526 26.004C31.6819 26.004 30.8886 26.2747 30.2726 26.816C29.6566 27.3573 29.3486 28.048 29.3486 28.888C29.3486 29.5227 29.4513 30.0547 29.6566 30.484C29.8619 30.9133 30.2353 31.3147 30.7766 31.688C31.4113 31.576 31.9899 31.52 32.5126 31.52C32.8486 31.52 33.1193 31.5853 33.3246 31.716C33.5299 31.828 33.6326 31.9773 33.6326 32.164C33.6326 32.5187 33.3713 32.696 32.8486 32.696C32.5499 32.696 32.2419 32.64 31.9246 32.528C31.6073 32.416 31.2339 32.2667 30.8046 32.08C28.7513 32.7707 27.7246 34.1987 27.7246 36.364C27.7246 37.4093 28.0326 38.324 28.6486 39.108C29.2833 39.8733 30.1513 40.4613 31.2526 40.872C32.3539 41.2827 33.5953 41.488 34.9766 41.488C36.4886 41.488 37.8139 41.292 38.9526 40.9C40.1099 40.508 40.9966 39.9667 41.6126 39.276C42.2473 38.5667 42.5646 37.7453 42.5646 36.812C42.5646 36.1587 42.3686 35.5147 41.9766 34.88C41.6033 34.2453 40.8473 33.788 39.7086 33.508L36.8246 34.6C35.9846 34.9173 35.3219 35.272 34.8366 35.664C34.3513 36.0373 34.1086 36.5133 34.1086 37.092C34.1086 37.6707 34.3046 38.1373 34.6966 38.492C35.0886 38.828 35.5553 38.996 36.0966 38.996C36.4886 38.996 36.8526 38.94 37.1886 38.828C37.5246 38.716 37.7206 38.5667 37.7766 38.38C37.4033 38.3053 37.0859 38.156 36.8246 37.932C36.5819 37.708 36.4606 37.3813 36.4606 36.952C36.4606 36.504 36.6006 36.1493 36.8806 35.888C37.1793 35.6267 37.5526 35.496 38.0006 35.496C38.4486 35.496 38.8033 35.636 39.0646 35.916C39.3446 36.196 39.4846 36.56 39.4846 37.008C39.4846 37.7547 39.1299 38.3427 38.4206 38.772C37.7299 39.2013 36.9833 39.416 36.1806 39.416C35.3593 39.416 34.7059 39.192 34.2206 38.744C33.7539 38.296 33.5206 37.652 33.5206 36.812C33.5206 34.908 34.8086 33.4987 37.3846 32.584L38.3926 32.22C40.5766 31.492 42.1446 30.8853 43.0966 30.4C43.8806 30.008 44.4313 29.6253 44.7486 29.252C45.0659 28.8787 45.2246 28.468 45.2246 28.02C45.2246 27.4227 44.9819 26.9373 44.4966 26.564C44.0299 26.172 43.4419 25.976 42.7326 25.976C42.5459 25.976 42.3779 26.004 42.2286 26.06C42.0979 26.116 42.0139 26.1813 41.9766 26.256C42.2193 26.368 42.4059 26.5547 42.5366 26.816C42.6859 27.0587 42.7606 27.3013 42.7606 27.544C42.7606 27.9173 42.6019 28.244 42.2846 28.524C41.9859 28.7853 41.6313 28.916 41.2206 28.916C40.7913 28.916 40.4273 28.7947 40.1286 28.552C39.8486 28.3093 39.7086 27.9827 39.7086 27.572C39.7086 26.8627 40.0166 26.3587 40.6326 26.06C41.2673 25.7427 42.0046 25.584 42.8446 25.584C43.7406 25.584 44.4779 25.8547 45.0566 26.396C45.6539 26.9187 45.9526 27.6467 45.9526 28.58ZM54.9918 23.736C54.3198 23.7733 53.8251 23.848 53.5078 23.96C53.2091 24.072 53.0038 24.2867 52.8918 24.604C52.7798 24.9213 52.7238 25.4347 52.7238 26.144V40.032C52.7238 40.7413 52.7798 41.2547 52.8918 41.572C53.0038 41.8893 53.2091 42.104 53.5078 42.216C53.8251 42.3093 54.3198 42.356 54.9918 42.356H57.0358C58.1931 42.356 59.0704 42.1973 59.6678 41.88C60.2838 41.544 60.7318 41.012 61.0118 40.284C61.2918 39.556 61.4971 38.5013 61.6278 37.12H62.2718C62.2158 37.6987 62.1878 38.464 62.1878 39.416C62.1878 40.48 62.2531 41.6747 62.3838 43C61.1144 42.944 58.9771 42.916 55.9718 42.916C52.3878 42.916 49.6811 42.944 47.8518 43V42.44C48.5238 42.4027 49.0091 42.328 49.3078 42.216C49.6251 42.104 49.8398 41.8893 49.9518 41.572C50.0638 41.2547 50.1198 40.7413 50.1198 40.032V26.144C50.1198 25.4347 50.0638 24.9213 49.9518 24.604C49.8398 24.2867 49.6251 24.072 49.3078 23.96C49.0091 23.848 48.5238 23.7733 47.8518 23.736V23.176C48.6358 23.232 49.8304 23.26 51.4358 23.26C52.9291 23.26 54.1144 23.232 54.9918 23.176V23.736Z" fill="#373732"/>
</svg>
